<?xml version="1.0" standalone="no"?>
<!DOCTYPE svg PUBLIC "-//W3C//DTD SVG 20010904//EN"
 "http://www.w3.org/TR/2001/REC-SVG-20010904/DTD/svg10.dtd">
<svg version="1.0" xmlns="http://www.w3.org/2000/svg"
 width="512.000000pt" height="512.000000pt" viewBox="0 0 512.000000 512.000000"
 preserveAspectRatio="xMidYMid meet">

<g transform="translate(0.000000,512.000000) scale(0.100000,-0.100000)"
fill="#000000" stroke="none">
<path d="M2017 4690 c-132 -23 -184 -76 -320 -332 l-105 -198 963 0 963 0 -91
192 c-121 252 -177 309 -326 338 -64 12 -1012 12 -1084 0z"/>
<path d="M665 4466 c-72 -33 -95 -83 -95 -212 l0 -94 270 0 270 0 0 95 c0 113
-13 151 -66 191 -37 29 -39 29 -193 31 -115 2 -164 -1 -186 -11z"/>
<path d="M4100 4461 c-19 -10 -45 -33 -57 -51 -20 -29 -23 -45 -23 -141 l0
-109 270 0 270 0 0 93 c0 117 -22 168 -90 204 -39 21 -56 23 -189 23 -123 0
-152 -3 -181 -19z"/>
<path d="M220 3973 c-66 -23 -124 -66 -159 -120 -52 -79 -61 -126 -61 -330 l0
-183 810 0 810 0 57 44 c513 388 1244 392 1753 9 l71 -53 810 0 810 0 -3 203
c-3 194 -4 204 -29 258 -33 69 -88 127 -154 159 l-50 25 -2310 2 c-2081 2
-2314 1 -2355 -14z"/>
<path d="M2341 3494 c-163 -27 -357 -105 -501 -200 -298 -197 -503 -513 -565
-868 -19 -112 -19 -314 0 -433 76 -466 410 -861 860 -1016 263 -90 557 -94
820 -11 411 131 738 468 859 887 59 203 61 471 7 682 -128 495 -547 878 -1051
960 -116 18 -315 18 -429 -1z m482 -262 c710 -192 1017 -1013 607 -1623 -24
-35 -80 -101 -124 -145 -413 -415 -1079 -415 -1492 0 -595 598 -286 1609 546
1782 100 20 363 12 463 -14z"/>
<path d="M2380 3086 c-231 -52 -432 -185 -561 -373 -44 -63 -104 -197 -124
-272 -59 -229 -27 -475 88 -681 55 -98 215 -261 313 -319 232 -136 489 -164
748 -81 135 44 234 106 347 219 180 180 261 376 261 631 1 427 -293 787 -715
876 -82 17 -279 17 -357 0z m368 -182 c92 -23 230 -96 300 -159 146 -133 238
-321 245 -503 2 -59 0 -66 -26 -88 -33 -29 -76 -31 -107 -6 -18 15 -25 37 -36
118 -28 202 -142 362 -316 443 -81 39 -169 61 -235 61 -43 0 -83 38 -83 79 0
21 9 37 32 56 30 26 36 27 100 20 38 -3 94 -13 126 -21z"/>
<path d="M0 2210 l0 -960 721 0 c573 0 719 3 713 12 -5 7 -25 34 -45 61 -58
73 -137 208 -180 308 -208 480 -139 1050 177 1460 30 38 54 71 54 74 0 3 -324
5 -720 5 l-720 0 0 -960z"/>
<path d="M3680 3165 c0 -3 24 -36 54 -74 206 -267 308 -595 293 -945 -14 -334
-99 -555 -336 -877 -13 -19 5 -19 708 -19 l721 0 0 960 0 960 -720 0 c-396 0
-720 -2 -720 -5z"/>
<path d="M2 873 c3 -204 4 -209 31 -265 33 -67 90 -121 166 -157 l56 -26 2255
-3 c1409 -2 2278 1 2318 7 83 13 145 45 198 104 73 82 84 126 84 352 l0 195
-800 0 -800 0 -93 -64 c-177 -122 -344 -197 -540 -244 -102 -24 -130 -27 -317
-27 -224 0 -290 10 -464 67 -119 39 -302 134 -401 208 l-80 60 -808 0 -809 0
4 -207z"/>
</g>
</svg>
